# xmcd
#
# Track frame offsets: 
#        150
#        18502
#        41908
#        57471
#        95618
#        116377
#        134632
#        159349
#        186266
#        205830
#        216879
#        249174
#        275617
#
# Disc length: 4040 seconds
#
# Revision: 0
# Processed by: cddbd v1.5.2PL0 Copyright (c) Steve Scherf et al.
# Submitted via: ExactAudioCopy v0.95b4
#
DISCID=c00fc60d
DTITLE=Big Mike And The Booty Papas - The Hustle Is Real
DYEAR=2016
DGENRE=Blues
TTITLE0=Spreading The News (About The Blues)
TTITLE1=I May Be Crazy
TTITLE2=If You Lose Your Money
TTITLE3=Trouble Blues
TTITLE4=Flying Pig
TTITLE5=She's Fine
TTITLE6=Get My Diner (Last Meal)
TTITLE7=One Of These Days
TTITLE8=Stop Dogging Me Around
TTITLE9=Oh Lord
TTITLE10=C.C.'s Travlin' Blues
TTITLE11=Curtis Lowe
TTITLE12=Pig Snoot Juke
EXTD=
EXTT0=
EXTT1=
EXTT2=
EXTT3=
EXTT4=
EXTT5=
EXTT6=
EXTT7=
EXTT8=
EXTT9=
EXTT10=
EXTT11=
EXTT12=
PLAYORDER=
